<svg width="0" height="0" class="hidden">
  <symbol stroke="none" xmlns="http://www.w3.org/2000/svg" viewBox="0 0 24 24" id="cart">
    <path d="M2.5 4.25C2.5 4.05109 2.57902 3.86032 2.71967 3.71967C2.86032 3.57902 3.05109 3.5 3.25 3.5H3.808C4.758 3.5 5.328 4.139 5.653 4.733C5.87 5.129 6.027 5.588 6.15 6.004C6.18327 6.00137 6.21663 6.00004 6.25 6H18.748C19.578 6 20.178 6.794 19.95 7.593L18.122 14.002C17.9581 14.5769 17.6114 15.0827 17.1343 15.4428C16.6572 15.803 16.0758 15.9979 15.478 15.998H9.53C8.92749 15.998 8.34165 15.8002 7.86252 15.4349C7.3834 15.0696 7.0375 14.557 6.878 13.976L6.118 11.204L4.858 6.956L4.857 6.948C4.701 6.381 4.555 5.85 4.337 5.454C4.128 5.069 3.96 5 3.809 5H3.25C3.05109 5 2.86032 4.92098 2.71967 4.78033C2.57902 4.63968 2.5 4.44891 2.5 4.25ZM7.573 10.84L8.324 13.579C8.474 14.121 8.967 14.498 9.53 14.498H15.478C15.7497 14.498 16.014 14.4095 16.2309 14.2458C16.4478 14.0821 16.6054 13.8523 16.68 13.591L18.417 7.5H6.585L7.559 10.787L7.573 10.84Z"></path>
    <path d="M11 19C11 19.5304 10.7893 20.0391 10.4142 20.4142C10.0391 20.7893 9.53043 21 9 21C8.46957 21 7.96086 20.7893 7.58579 20.4142C7.21071 20.0391 7 19.5304 7 19C7 18.4696 7.21071 17.9609 7.58579 17.5858C7.96086 17.2107 8.46957 17 9 17C9.53043 17 10.0391 17.2107 10.4142 17.5858C10.7893 17.9609 11 18.4696 11 19ZM9.5 19C9.5 18.8674 9.44732 18.7402 9.35355 18.6464C9.25979 18.5527 9.13261 18.5 9 18.5C8.86739 18.5 8.74021 18.5527 8.64645 18.6464C8.55268 18.7402 8.5 18.8674 8.5 19C8.5 19.1326 8.55268 19.2598 8.64645 19.3536C8.74021 19.4473 8.86739 19.5 9 19.5C9.13261 19.5 9.25979 19.4473 9.35355 19.3536C9.44732 19.2598 9.5 19.1326 9.5 19Z" ></path>
    <path d="M18 19C18 19.5304 17.7893 20.0391 17.4142 20.4142C17.0391 20.7893 16.5304 21 16 21C15.4696 21 14.9609 20.7893 14.5858 20.4142C14.2107 20.0391 14 19.5304 14 19C14 18.4696 14.2107 17.9609 14.5858 17.5858C14.9609 17.2107 15.4696 17 16 17C16.5304 17 17.0391 17.2107 17.4142 17.5858C17.7893 17.9609 18 18.4696 18 19ZM16.5 19C16.5 18.8674 16.4473 18.7402 16.3536 18.6464C16.2598 18.5527 16.1326 18.5 16 18.5C15.8674 18.5 15.7402 18.5527 15.6464 18.6464C15.5527 18.7402 15.5 18.8674 15.5 19C15.5 19.1326 15.5527 19.2598 15.6464 19.3536C15.7402 19.4473 15.8674 19.5 16 19.5C16.1326 19.5 16.2598 19.4473 16.3536 19.3536C16.4473 19.2598 16.5 19.1326 16.5 19Z" ></path>
  </symbol>
  <symbol fill="none"  xmlns="http://www.w3.org/2000/svg" viewBox="0 0 16 16" id="chevron">
    <path d="M2.66699 6L8.00033 11.3333L13.3337 6" stroke-linecap="round" stroke-linejoin="round"></path>
  </symbol>
  <symbol stroke="none" xmlns="http://www.w3.org/2000/svg" viewBox="0 0 16 16" id="envelope">
    <path d="M12.6663 2.66675H3.33301C2.80257 2.66675 2.29387 2.87746 1.91879 3.25253C1.54372 3.62761 1.33301 4.13631 1.33301 4.66675V11.3334C1.33301 11.8638 1.54372 12.3726 1.91879 12.7476C2.29387 13.1227 2.80257 13.3334 3.33301 13.3334H12.6663C13.1968 13.3334 13.7055 13.1227 14.0806 12.7476C14.4556 12.3726 14.6663 11.8638 14.6663 11.3334V4.66675C14.6663 4.13631 14.4556 3.62761 14.0806 3.25253C13.7055 2.87746 13.1968 2.66675 12.6663 2.66675ZM3.33301 4.00008H12.6663C12.8432 4.00008 13.0127 4.07032 13.1377 4.19534C13.2628 4.32037 13.333 4.48994 13.333 4.66675L7.99967 7.92008L2.66634 4.66675C2.66634 4.48994 2.73658 4.32037 2.8616 4.19534C2.98663 4.07032 3.1562 4.00008 3.33301 4.00008ZM13.333 11.3334C13.333 11.5102 13.2628 11.6798 13.1377 11.8048C13.0127 11.9298 12.8432 12.0001 12.6663 12.0001H3.33301C3.1562 12.0001 2.98663 11.9298 2.8616 11.8048C2.73658 11.6798 2.66634 11.5102 2.66634 11.3334V6.18675L7.65301 9.23341C7.75435 9.29193 7.86932 9.32273 7.98634 9.32273C8.10337 9.32273 8.21833 9.29193 8.31967 9.23341L13.333 6.18675V11.3334Z" ></path>
  </symbol>
  <symbol stroke="none" xmlns="http://www.w3.org/2000/svg" viewBox="0 0 12 12" id="facebook">
    <path d="M6.8948 9.96416V5.86616H8.27731L8.4828 4.26166H6.8948V3.23966C6.8948 2.77666 7.0238 2.45966 7.6883 2.45966H8.5303V1.02916C8.12062 0.985256 7.70883 0.964057 7.2968 0.965661C6.0748 0.965661 5.23581 1.71166 5.23581 3.08116V4.25866H3.8623V5.86316H5.2388V9.96416H6.8948Z"></path>
  </symbol>
  <symbol stroke="none" xmlns="http://www.w3.org/2000/svg" viewBox="0 0 16 16" id="heart">
    <path d="M13.4399 3.07329C12.7321 2.3653 11.7937 1.93484 10.7953 1.86021C9.79701 1.78558 8.80505 2.07173 7.99986 2.66662C7.15163 2.03572 6.09585 1.74963 5.04514 1.86598C3.99442 1.98233 3.02682 2.49248 2.33717 3.29368C1.64753 4.09489 1.28707 5.12764 1.32839 6.18397C1.36971 7.2403 1.80974 8.24174 2.55986 8.98662L7.52653 13.9533C7.5885 14.0158 7.66223 14.0654 7.74347 14.0992C7.82471 14.1331 7.91185 14.1505 7.99986 14.1505C8.08787 14.1505 8.175 14.1331 8.25624 14.0992C8.33748 14.0654 8.41122 14.0158 8.47319 13.9533L13.4399 8.98662C13.8283 8.59844 14.1364 8.13752 14.3467 7.6302C14.5569 7.12288 14.6651 6.57911 14.6651 6.02996C14.6651 5.4808 14.5569 4.93703 14.3467 4.42971C14.1364 3.9224 13.8283 3.46148 13.4399 3.07329ZM12.4999 8.04662L7.99986 12.54L3.49986 8.04662C3.10331 7.64842 2.83317 7.14199 2.72334 6.59085C2.61351 6.03971 2.66888 5.46841 2.88249 4.94862C3.09611 4.42883 3.45846 3.98369 3.92409 3.66904C4.38972 3.35439 4.9379 3.18425 5.49986 3.17996C6.2506 3.1818 6.96992 3.48151 7.49986 4.01329C7.56183 4.07578 7.63557 4.12537 7.71681 4.15922C7.79805 4.19306 7.88518 4.21049 7.97319 4.21049C8.0612 4.21049 8.14834 4.19306 8.22958 4.15922C8.31082 4.12537 8.38455 4.07578 8.44653 4.01329C8.99207 3.54055 9.69685 3.29272 10.4182 3.31997C11.1396 3.34723 11.8237 3.64752 12.332 4.16008C12.8403 4.67264 13.1349 5.35918 13.1562 6.08075C13.1774 6.80232 12.9238 7.50502 12.4465 8.04662H12.4999Z"></path>
  </symbol>
  <symbol stroke="none" xmlns="http://www.w3.org/2000/svg" viewBox="0 0 12 12" id="instagram">
    <path d="M10.473 4.15272C10.468 3.77403 10.3971 3.39911 10.2635 3.04472C10.1477 2.7458 9.97081 2.47432 9.74413 2.24764C9.51745 2.02095 9.24597 1.84405 8.94705 1.72822C8.59721 1.5969 8.22763 1.52589 7.85405 1.51822C7.37305 1.49672 7.22055 1.49072 5.99955 1.49072C4.77855 1.49072 4.62205 1.49072 4.14455 1.51822C3.77113 1.52595 3.40172 1.59696 3.05205 1.72822C2.75308 1.84397 2.48156 2.02084 2.25486 2.24754C2.02817 2.47423 1.85129 2.74575 1.73555 3.04472C1.60396 3.39429 1.53311 3.76378 1.52605 4.13722C1.50455 4.61872 1.49805 4.77122 1.49805 5.99222C1.49805 7.21322 1.49805 7.36922 1.52605 7.84722C1.53355 8.22122 1.60405 8.59022 1.73555 8.94072C1.85149 9.2396 2.02849 9.51101 2.25526 9.73761C2.48203 9.96421 2.75358 10.141 3.05255 10.2567C3.40126 10.3933 3.77073 10.4694 4.14505 10.4817C4.62655 10.5032 4.77905 10.5097 6.00005 10.5097C7.22105 10.5097 7.37755 10.5097 7.85505 10.4817C8.22862 10.4744 8.59823 10.4035 8.94805 10.2722C9.24689 10.1563 9.5183 9.97931 9.74497 9.75264C9.97163 9.52598 10.1486 9.25457 10.2645 8.95572C10.396 8.60572 10.4665 8.23672 10.474 7.86222C10.4955 7.38122 10.502 7.22872 10.502 6.00722C10.501 4.78622 10.501 4.63122 10.473 4.15272ZM5.99655 8.30122C4.71955 8.30122 3.68505 7.26672 3.68505 5.98972C3.68505 4.71272 4.71955 3.67822 5.99655 3.67822C6.60959 3.67822 7.19753 3.92176 7.63102 4.35525C8.06451 4.78874 8.30805 5.37667 8.30805 5.98972C8.30805 6.60277 8.06451 7.19071 7.63102 7.6242C7.19753 8.05769 6.60959 8.30122 5.99655 8.30122ZM8.40005 4.13172C8.10155 4.13172 7.86105 3.89072 7.86105 3.59272C7.86105 3.52197 7.87498 3.45192 7.90206 3.38655C7.92913 3.32119 7.96882 3.2618 8.01884 3.21177C8.06887 3.16174 8.12826 3.12206 8.19363 3.09498C8.25899 3.06791 8.32905 3.05397 8.3998 3.05397C8.47055 3.05397 8.5406 3.06791 8.60597 3.09498C8.67133 3.12206 8.73072 3.16174 8.78075 3.21177C8.83078 3.2618 8.87046 3.32119 8.89754 3.38655C8.92461 3.45192 8.93855 3.52197 8.93855 3.59272C8.93855 3.89072 8.69755 4.13172 8.40005 4.13172Z"></path>
    <path d="M5.99662 7.49079C6.82587 7.49079 7.49812 6.81855 7.49812 5.98929C7.49812 5.16004 6.82587 4.48779 5.99662 4.48779C5.16736 4.48779 4.49512 5.16004 4.49512 5.98929C4.49512 6.81855 5.16736 7.49079 5.99662 7.49079Z"></path>
  </symbol>
  <symbol stroke="none" xmlns="http://www.w3.org/2000/svg" viewBox="0 0 16 16" id="phone-call">
    <path d="M11.0438 14.6659H11.0625C11.4145 14.6659 11.7472 14.5273 11.9992 14.2753L13.8072 12.4673C13.8691 12.4054 13.9183 12.3319 13.9518 12.251C13.9854 12.1702 14.0026 12.0835 14.0026 11.9959C14.0026 11.9084 13.9854 11.8217 13.9518 11.7408C13.9183 11.6599 13.8691 11.5864 13.8072 11.5246L11.1405 8.85792C11.0786 8.79595 11.0052 8.7468 10.9243 8.71326C10.8434 8.67972 10.7567 8.66245 10.6692 8.66245C10.5816 8.66245 10.4949 8.67972 10.414 8.71326C10.3331 8.7468 10.2597 8.79595 10.1978 8.85792L9.13515 9.92059C8.64249 9.77392 7.72315 9.44059 7.14049 8.85792C6.55782 8.27525 6.22449 7.35592 6.07782 6.86325L7.14049 5.80059C7.20245 5.73873 7.25161 5.66526 7.28515 5.58438C7.31869 5.5035 7.33595 5.41681 7.33595 5.32925C7.33595 5.2417 7.31869 5.155 7.28515 5.07412C7.25161 4.99325 7.20245 4.91978 7.14049 4.85792L4.47382 2.19125C4.34637 2.07095 4.17774 2.00394 4.00249 2.00394C3.82723 2.00394 3.6586 2.07095 3.53115 2.19125L1.72382 3.99925C1.47049 4.25259 1.32782 4.60059 1.33315 4.95592C1.34849 5.90525 1.59982 9.20259 4.19849 11.8013C6.79715 14.3999 10.0945 14.6506 11.0438 14.6659ZM4.00315 3.60525L5.72715 5.32925L4.86515 6.19125C4.78671 6.26948 4.72908 6.36609 4.69753 6.47229C4.66597 6.57848 4.66149 6.69088 4.68449 6.79925C4.70049 6.87592 5.09182 8.69392 6.19849 9.80059C7.30515 10.9073 9.12315 11.2986 9.19982 11.3146C9.30819 11.3377 9.42062 11.3333 9.52684 11.3017C9.63305 11.2702 9.72966 11.2125 9.80782 11.1339L10.6698 10.2719L12.3938 11.9959L11.0565 13.3326C10.2245 13.3186 7.37782 13.0953 5.14115 10.8579C2.89715 8.61392 2.67982 5.75725 2.66649 4.94192L4.00315 3.60525ZM13.3325 7.33259H14.6658C14.6658 3.91259 12.0838 1.33325 8.65915 1.33325V2.66659C11.3672 2.66659 13.3325 4.62858 13.3325 7.33259Z"></path>
    <path d="M8.66602 5.33333C10.068 5.33333 10.666 5.93133 10.666 7.33333H11.9993C11.9993 5.18333 10.816 4 8.66602 4V5.33333Z"></path>
  </symbol>
  <symbol stroke="none" xmlns="http://www.w3.org/2000/svg" viewBox="0 0 20 20" id="search">
    <path d="M19.7192 18.3139L16.0114 14.6333C17.4506 12.8374 18.1476 10.5579 17.959 8.26356C17.7705 5.96919 16.7106 3.83432 14.9975 2.29792C13.2844 0.761532 11.0481 -0.0595993 8.74862 0.00337152C6.44911 0.0663423 4.26109 1.00863 2.63448 2.63648C1.00786 4.26433 0.066292 6.454 0.00336896 8.75527C-0.059554 11.0565 0.760954 13.2945 2.29618 15.0089C3.83141 16.7233 5.96466 17.784 8.25729 17.9727C10.5499 18.1614 12.8277 17.4639 14.6222 16.0235L18.3 19.7042C18.3929 19.7979 18.5035 19.8723 18.6253 19.9231C18.747 19.9739 18.8777 20 19.0096 20C19.1415 20 19.2722 19.9739 19.3939 19.9231C19.5157 19.8723 19.6263 19.7979 19.7192 19.7042C19.8993 19.5177 20 19.2684 20 19.009C20 18.7497 19.8993 18.5004 19.7192 18.3139ZM9.01554 16.0235C7.63189 16.0235 6.27932 15.6129 5.12886 14.8436C3.9784 14.0743 3.08172 12.9809 2.55223 11.7016C2.02273 10.4223 1.88419 9.01462 2.15412 7.65653C2.42406 6.29844 3.09035 5.05095 4.06873 4.07183C5.04712 3.0927 6.29366 2.4259 7.65072 2.15576C9.00778 1.88562 10.4144 2.02426 11.6927 2.55417C12.9711 3.08407 14.0637 3.98142 14.8324 5.13276C15.6011 6.28409 16.0114 7.63769 16.0114 9.02239C16.0114 10.8792 15.2743 12.66 13.9623 13.973C12.6504 15.2859 10.871 16.0235 9.01554 16.0235Z" ></path>
  </symbol>
  <symbol stroke="none" xmlns="http://www.w3.org/2000/svg" viewBox="0 0 12 12" id="twitter">
    <path d="M11.8217 2.46829C11.4042 2.65329 10.9558 2.77829 10.4843 2.83479C10.9708 2.54369 11.3347 2.08553 11.5083 1.54579C11.0512 1.81729 10.5509 2.00839 10.0293 2.11079C9.67844 1.73623 9.21378 1.48796 8.70741 1.40453C8.20104 1.32111 7.6813 1.40719 7.22887 1.64942C6.77644 1.89165 6.41664 2.27648 6.20533 2.74415C5.99402 3.21182 5.94302 3.73617 6.06025 4.23579C5.13409 4.18929 4.22806 3.94857 3.40096 3.52925C2.57386 3.10992 1.84417 2.52137 1.25925 1.80179C1.05925 2.14679 0.94425 2.54679 0.94425 2.97279C0.944027 3.35629 1.03847 3.73392 1.21919 4.07216C1.39991 4.41041 1.66133 4.69881 1.98025 4.91179C1.61039 4.90003 1.24869 4.80009 0.92525 4.62029V4.65029C0.925213 5.18816 1.11127 5.70948 1.45184 6.12579C1.79242 6.5421 2.26654 6.82776 2.79375 6.93429C2.45064 7.02715 2.09092 7.04083 1.74175 6.97429C1.8905 7.4371 2.18025 7.84181 2.57043 8.13176C2.96062 8.42171 3.43171 8.58238 3.91775 8.59129C3.09267 9.239 2.07369 9.59034 1.02475 9.58879C0.838941 9.58884 0.653288 9.57799 0.46875 9.55629C1.53349 10.2409 2.77292 10.6042 4.03875 10.6028C8.32375 10.6028 10.6663 7.05379 10.6663 3.97579C10.6663 3.87579 10.6638 3.77479 10.6593 3.67479C11.1149 3.34528 11.5082 2.93724 11.8208 2.46979L11.8217 2.46829V2.46829Z"></path>
  </symbol>

   <symbol stroke="none" xmlns="http://www.w3.org/2000/svg" viewBox="0 0 16 16" id="profile">
    <path d="M8 2C8.49445 2 8.9778 2.14662 9.38893 2.42133C9.80005 2.69603 10.1205 3.08648 10.3097 3.54329C10.4989 4.00011 10.5484 4.50277 10.452 4.98773C10.3555 5.47268 10.1174 5.91814 9.76777 6.26777C9.41814 6.6174 8.97268 6.8555 8.48773 6.95196C8.00278 7.04843 7.50011 6.99892 7.04329 6.8097C6.58648 6.62048 6.19603 6.30005 5.92133 5.88893C5.64662 5.4778 5.5 4.99445 5.5 4.5C5.5 3.83696 5.76339 3.20107 6.23223 2.73223C6.70108 2.26339 7.33696 2 8 2ZM8 1C7.30777 1 6.63108 1.20527 6.05551 1.58986C5.47993 1.97444 5.03133 2.52107 4.76642 3.16061C4.50152 3.80015 4.4322 4.50388 4.56725 5.18282C4.7023 5.86175 5.03564 6.48539 5.52513 6.97487C6.01461 7.46436 6.63825 7.7977 7.31719 7.93275C7.99612 8.0678 8.69985 7.99848 9.33939 7.73358C9.97893 7.46867 10.5256 7.02007 10.9101 6.4445C11.2947 5.86892 11.5 5.19223 11.5 4.5C11.5 3.57174 11.1313 2.6815 10.4749 2.02513C9.8185 1.36875 8.92826 1 8 1Z"></path>
    <path d="M13 15H12V12.5C12 12.1717 11.9353 11.8466 11.8097 11.5433C11.6841 11.24 11.4999 10.9644 11.2678 10.7322C11.0356 10.5001 10.76 10.3159 10.4567 10.1903C10.1534 10.0647 9.8283 10 9.5 10H6.5C5.83696 10 5.20107 10.2634 4.73223 10.7322C4.26339 11.2011 4 11.837 4 12.5V15H3V12.5C3 11.5717 3.36875 10.6815 4.02513 10.0251C4.6815 9.36875 5.57174 9 6.5 9H9.5C10.4283 9 11.3185 9.36875 11.9749 10.0251C12.6313 10.6815 13 11.5717 13 12.5V15Z"></path>
  </symbol>
</svg>